<?xml version="1.0" encoding="UTF-8" standalone="no"?>
<!DOCTYPE svg PUBLIC "-//W3C//DTD SVG 1.1//EN" "http://www.w3.org/Graphics/SVG/1.1/DTD/svg11.dtd">
<svg width="24" height="24" viewBox="0 0 24 24" version="1.1" xmlns="http://www.w3.org/2000/svg" xmlns:xlink="http://www.w3.org/1999/xlink" xml:space="preserve" xmlns:serif="http://www.serif.com/" style="fill-rule:evenodd;clip-rule:evenodd;stroke-linejoin:round;stroke-miterlimit:2;">
    <path d="M14.08,15.59L16.67,13L7,13L7,11L16.67,11L14.08,8.41L15.5,7L20.5,12L15.5,17L14.08,15.59M19,3C20.097,3 21,3.903 21,5L21,9.67L19,7.67L19,5L5,5L5,19L19,19L19,16.33L21,14.33L21,19C21,20.097 20.097,21 19,21L5,21C3.89,21 3,20.1 3,19L3,5C3,3.89 3.89,3 5,3L19,3Z" style="fill:url(#_Linear1);fill-rule:nonzero;"/>
    <defs>
        <linearGradient id="_Linear1" x1="0" y1="0" x2="1" y2="0" gradientUnits="userSpaceOnUse" gradientTransform="matrix(18,0,0,18,3,12)"><stop offset="0" style="stop-color:rgb(88,88,88);stop-opacity:1"/><stop offset="0.47" style="stop-color:rgb(119,84,84);stop-opacity:1"/><stop offset="1" style="stop-color:rgb(201,74,74);stop-opacity:1"/></linearGradient>
    </defs>
</svg>
